<svg width="120" height="36" viewBox="0 0 120 36" fill="none" xmlns="http://www.w3.org/2000/svg">
<path d="M0 0.228394C5.82969 0.228394 11.5942 -0.194956 17.2774 0.317949C27.6015 1.26235 29.1973 11.3006 26.1033 17.6102C25.0123 19.8328 24.1004 20.6876 20.4121 23.1382C23.2536 27.0135 26.0952 30.8887 29.124 35.0164C25.8428 35.0164 22.8302 35.049 19.8177 34.9757C19.4676 34.9676 19.0686 34.414 18.7999 34.0313C16.8459 31.2632 14.7696 28.5685 13.0517 25.662C11.8711 23.6755 10.3892 23.4231 8.29673 23.9035C8.29673 27.5345 8.29673 31.1981 8.29673 34.9431C5.4633 34.9431 2.79272 34.9431 0.0162841 34.9431C0 23.3661 0 11.7728 0 0.228394ZM8.38629 7.69402C8.38629 10.4946 8.38629 13.336 8.38629 16.1692C10.6986 16.1692 12.8888 16.275 15.0709 16.1366C17.3425 15.9901 18.9791 14.1908 19.0686 12.0578C19.1663 9.68051 17.9857 8.01967 15.5024 7.75101C13.1982 7.49863 10.8533 7.69402 8.38629 7.69402Z" fill="url(#paint0_linear_568_2043)"/>
<path d="M50.4479 26.8913C51.1562 28.9103 51.8809 30.9131 52.5241 32.9403C52.5974 33.1764 52.288 33.7056 52.0193 33.844C46.499 36.6772 37.0542 36.954 32.0225 32.5902C29.7346 30.6119 28.3504 28.1125 27.9107 25.1653C27.1454 19.9955 27.9026 15.2166 31.998 11.4634C33.8626 9.75372 36.126 8.83375 38.5849 8.52438C42.7374 8.00333 46.8002 8.23129 50.1629 11.1622C53.9082 14.4269 54.5596 18.7988 54.3153 23.4231C54.299 23.708 53.5093 24.1721 53.0696 24.1802C48.1274 24.2372 43.1852 24.2128 38.243 24.2128C37.7056 24.2128 37.1682 24.2128 36.5983 24.2128C37.3392 27.103 40.2133 28.7231 43.7551 28.3323C44.895 28.202 46.0349 28.0392 47.1504 27.8031C48.217 27.5752 49.251 27.2332 50.456 26.8994L50.4479 26.8913ZM36.4843 19.1651H41.0438C42.5175 19.1651 43.9912 19.1651 45.4731 19.1651C45.3021 16.6902 43.6656 15.1107 41.3044 14.9805C39.0246 14.8502 36.8995 16.6087 36.4843 19.1651Z" fill="url(#paint1_linear_568_2043)"/>
<path d="M119.606 24.2372C113.597 24.2372 107.776 24.2372 101.824 24.2372C102.557 26.5656 104.12 27.6891 106.253 28.1369C108.981 28.7068 111.586 28.0392 114.192 27.3309C114.664 27.2007 115.128 27.046 115.763 26.8587C116.48 28.9022 117.213 30.8887 117.848 32.9159C117.929 33.1683 117.555 33.7707 117.253 33.8929C111.09 36.5225 104.886 36.9621 98.8604 33.6486C95.514 31.8087 93.7391 28.658 93.218 24.9292C92.5259 19.9386 93.2994 15.3224 97.1424 11.5937C101.718 7.16478 112.686 6.92868 116.887 12.5625C119.46 16.0063 119.916 19.906 119.614 24.2372H119.606ZM101.816 19.0756H110.837C110.52 16.5355 108.875 15.0212 106.465 14.9723C104.21 14.9235 102.239 16.625 101.808 19.0756H101.816Z" fill="url(#paint2_linear_568_2043)"/>
<path d="M55.5042 9.26515H63.6218C63.6788 9.90832 63.7358 10.5271 63.801 11.2842C64.0778 11.1132 64.3383 11.0074 64.5337 10.8364C67.6196 8.20678 71.1288 7.60432 74.8741 8.98835C78.6683 10.3887 80.6957 13.4091 81.0051 17.2925C81.3552 21.6563 81.2412 26.0608 81.3145 30.449C81.3389 31.89 81.3145 33.3391 81.3145 34.9104C78.538 34.9104 75.8349 34.9104 72.9526 34.9104C72.9526 33.6322 72.9526 32.354 72.9526 31.0677C72.9526 27.5751 73.0014 24.0743 72.9363 20.5816C72.8793 17.6752 71.4952 16.0225 69.1666 15.8597C66.5937 15.6805 64.4035 17.3658 63.9801 20.0199C63.744 21.5342 63.7358 23.0973 63.7195 24.636C63.687 28.0228 63.7114 31.4178 63.7114 34.9186C60.9594 34.9186 58.2888 34.9186 55.4961 34.9186C55.4961 26.4516 55.4961 17.9438 55.4961 9.25701L55.5042 9.26515Z" fill="url(#paint3_linear_568_2043)"/>
<path d="M91.8015 34.9918C89.0414 34.9918 86.4034 34.9918 83.6514 34.9918C83.6514 26.6143 83.6514 18.2776 83.6514 9.90826C87.3886 12.2693 88.4877 12.2611 91.8015 9.76172C91.8015 18.188 91.8015 26.5248 91.8015 34.9918Z" fill="url(#paint4_linear_568_2043)"/>
<path d="M87.6326 9.94909C84.7666 9.94909 82.5927 7.79163 82.609 4.95844C82.6171 2.18224 84.8969 -0.0322108 87.714 0.000354616C90.4253 0.03292 92.6725 2.27993 92.6644 4.96658C92.6644 7.84048 90.5312 9.95723 87.6326 9.94909Z" fill="url(#paint5_linear_568_2043)"/>
<defs>
<linearGradient id="paint0_linear_568_2043" x1="-3.45222" y1="19.9305" x2="112.49" y2="5.09453" gradientUnits="userSpaceOnUse">
<stop stop-color="#4765E6"/>
<stop offset="0.46" stop-color="#5C4099"/>
<stop offset="1" stop-color="#E31662"/>
</linearGradient>
<linearGradient id="paint1_linear_568_2043" x1="-2.44274" y1="27.8275" x2="113.499" y2="12.9834" gradientUnits="userSpaceOnUse">
<stop stop-color="#4765E6"/>
<stop offset="0.46" stop-color="#5C4099"/>
<stop offset="1" stop-color="#E31662"/>
</linearGradient>
<linearGradient id="paint2_linear_568_2043" x1="-1.38423" y1="36.0666" x2="114.558" y2="21.2306" gradientUnits="userSpaceOnUse">
<stop stop-color="#4765E6"/>
<stop offset="0.46" stop-color="#5C4099"/>
<stop offset="1" stop-color="#E31662"/>
</linearGradient>
<linearGradient id="paint3_linear_568_2043" x1="-2.01918" y1="31.1003" x2="113.923" y2="16.2562" gradientUnits="userSpaceOnUse">
<stop stop-color="#4765E6"/>
<stop offset="0.46" stop-color="#5C4099"/>
<stop offset="1" stop-color="#E31662"/>
</linearGradient>
<linearGradient id="paint4_linear_568_2043" x1="-1.66894" y1="33.8846" x2="114.281" y2="19.0486" gradientUnits="userSpaceOnUse">
<stop stop-color="#4765E6"/>
<stop offset="0.46" stop-color="#5C4099"/>
<stop offset="1" stop-color="#E31662"/>
</linearGradient>
<linearGradient id="paint5_linear_568_2043" x1="-3.86748" y1="16.682" x2="112.075" y2="1.84604" gradientUnits="userSpaceOnUse">
<stop stop-color="#4765E6"/>
<stop offset="0.46" stop-color="#5C4099"/>
<stop offset="1" stop-color="#E31662"/>
</linearGradient>
</defs>
</svg>
