<svg width="29" height="29" viewBox="0 0 29 29" fill="none" xmlns="http://www.w3.org/2000/svg">
<path d="M15.4701 25.2635C15.4701 24.3003 15.4562 23.339 15.4736 22.3758C15.5032 20.787 16.1721 19.5215 17.5047 18.6796C18.9558 17.7639 20.4329 16.8851 21.938 16.0644C22.37 15.8288 22.5546 15.5582 22.6748 15.1188C23.1608 13.3173 23.6712 11.521 24.1851 9.72653C24.4481 8.81083 25.2529 8.25017 26.2075 8.28708C27.0523 8.31871 27.8327 8.94441 27.9547 9.84077C28.0191 10.3223 28.2038 10.6299 28.5243 10.9603C28.9685 11.4173 29.0956 12.0219 28.9336 12.6441C28.2996 15.0836 27.6498 17.5179 27.0071 19.9539C26.9531 20.1613 26.8956 20.3669 26.8433 20.576C26.7074 21.1174 26.4392 21.5726 26.0228 21.9452C24.9968 22.8609 23.9848 23.7907 22.9483 24.694C22.4919 25.0913 22.2672 25.5588 22.2811 26.1669C22.2986 26.9139 22.2864 27.6626 22.2846 28.4096C22.2846 28.7839 22.1157 28.9896 21.8126 28.9966C21.4973 29.0036 21.3144 28.791 21.3144 28.4043C21.3144 27.6257 21.3248 26.8471 21.3109 26.0702C21.2952 25.2231 21.6209 24.5499 22.2463 23.998C23.2619 23.1017 24.2617 22.186 25.2756 21.2879C25.5996 20.9996 25.8051 20.6604 25.9148 20.2368C26.5838 17.6919 27.2666 15.1487 27.9373 12.6037C27.986 12.4209 28.0139 12.2153 27.986 12.0325C27.9164 11.5913 27.5453 11.2662 27.1377 11.238C26.6796 11.2064 26.2423 11.5017 26.1065 11.978C25.8365 12.9306 25.5874 13.8885 25.333 14.8446C25.1588 15.4949 24.9829 16.1452 24.8226 16.799C24.7861 16.9502 24.7826 17.1242 24.8157 17.2753C24.9951 18.0891 24.7024 18.9327 24.0039 19.3668C23.0546 19.9556 22.0826 20.504 21.114 21.0611C20.8493 21.214 20.5618 21.1279 20.4277 20.8871C20.2849 20.6323 20.3667 20.3616 20.6594 20.1876C21.5687 19.6516 22.4849 19.1243 23.3942 18.5882C23.7757 18.3633 23.936 18.0135 23.8715 17.5759C23.8106 17.1751 23.5719 16.8816 23.1817 16.8113C22.9413 16.7674 22.6365 16.7937 22.4292 16.9115C20.9573 17.7534 19.4905 18.6076 18.0499 19.4987C16.9734 20.1648 16.4561 21.1912 16.4456 22.4584C16.4299 24.3724 16.4421 26.2882 16.4421 28.2022C16.4421 28.2742 16.4421 28.3463 16.4421 28.4166C16.4369 28.7839 16.2644 28.9931 15.9596 28.9948C15.6548 28.9966 15.4719 28.7874 15.4701 28.4254C15.4684 27.3708 15.4701 26.3163 15.4701 25.2617V25.2635ZM23.9778 16.0819C24.0092 15.9765 24.037 15.8904 24.0597 15.8007C24.4237 14.4421 24.7774 13.08 25.1536 11.7249C25.3644 10.9621 25.8783 10.4911 26.6343 10.2925C26.7597 10.2591 26.8903 10.2485 27.0314 10.2239C27.0088 9.80738 26.8172 9.51562 26.4566 9.34865C25.9027 9.0938 25.2825 9.45235 25.0909 10.129C24.7599 11.3066 24.4342 12.4859 24.1032 13.6635C23.9012 14.3876 23.6956 15.1117 23.4883 15.8411C23.6573 15.9237 23.8001 15.994 23.9761 16.0802L23.9778 16.0819Z" fill="white"/>
<path d="M13.5191 25.2635C13.5191 26.3075 13.5191 27.3515 13.5191 28.3973C13.5191 28.7892 13.3432 29.0001 13.0296 28.9984C12.7161 28.9966 12.5489 28.7874 12.5471 28.3902C12.5471 26.4762 12.5401 24.5605 12.5471 22.6465C12.5541 21.1648 11.9392 20.0593 10.6571 19.3194C9.32973 18.5531 8.0163 17.7604 6.69764 16.9783C6.43635 16.8236 6.16809 16.7147 5.86151 16.7937C5.4626 16.8974 5.20305 17.1523 5.12118 17.5618C5.03582 17.9836 5.21524 18.3703 5.60544 18.6005C6.43635 19.0909 7.27249 19.5725 8.10514 20.0576C8.19224 20.1085 8.28282 20.156 8.36643 20.214C8.62773 20.395 8.69566 20.6604 8.54934 20.903C8.40476 21.1402 8.12779 21.214 7.85778 21.0594C7.22197 20.6973 6.59313 20.3265 5.9608 19.9574C5.67163 19.7887 5.37899 19.6234 5.09331 19.4494C4.30595 18.9661 3.97672 18.1471 4.18227 17.2349C4.21014 17.1119 4.21188 16.9677 4.18052 16.8447C3.7642 15.2559 3.34439 13.6688 2.91761 12.0834C2.69812 11.2662 1.81844 10.9639 1.27147 11.514C1.01714 11.7688 0.910883 12.0817 1.00669 12.4402C1.71044 15.103 2.40722 17.7674 3.13361 20.4249C3.21374 20.7202 3.42974 21.0137 3.65794 21.2263C4.66304 22.1631 5.6908 23.0788 6.72203 23.9875C7.36655 24.5552 7.69578 25.2442 7.67488 26.1142C7.65572 26.8822 7.67314 27.6503 7.66965 28.4184C7.66965 28.7892 7.4972 28.9966 7.1941 29.0019C6.87881 29.0071 6.69939 28.7945 6.69939 28.406C6.69939 27.6274 6.6959 26.8506 6.69939 26.072C6.70113 25.55 6.51474 25.1229 6.1228 24.7749C5.08634 23.8557 4.06207 22.9242 3.02387 22.005C2.56574 21.599 2.27831 21.1086 2.12328 20.5128C1.45786 17.966 0.780236 15.4228 0.0991337 12.8814C-0.153449 11.9393 0.0695206 11.1713 0.849915 10.5737C0.919593 10.5192 0.966625 10.3909 0.968367 10.296C0.991013 9.27483 1.65992 8.43296 2.56399 8.30114C3.60045 8.14999 4.51498 8.74756 4.81285 9.78805C5.36157 11.7108 5.90331 13.6354 6.43635 15.5617C6.48861 15.7497 6.58267 15.8271 6.7499 15.915C7.4223 16.27 8.07901 16.6531 8.73747 17.0363C9.58754 17.5319 10.4376 18.0328 11.279 18.5425C12.7544 19.4371 13.5087 20.7553 13.5156 22.4988C13.5191 23.4198 13.5156 24.3425 13.5156 25.2635H13.5191ZM1.97347 10.2169C1.9996 10.2274 2.02573 10.245 2.0536 10.2468C3.03781 10.3593 3.62833 10.9252 3.88265 11.869C4.09517 12.6564 4.29898 13.4456 4.50801 14.2347C4.67176 14.8481 4.83724 15.4597 5.00621 16.0854C5.1926 15.9905 5.34066 15.9132 5.4957 15.8359C5.2135 14.8288 4.93827 13.848 4.66305 12.8673C4.39478 11.9147 4.13523 10.9621 3.85478 10.013C3.70671 9.51387 3.2329 9.20805 2.76432 9.27483C2.36019 9.33283 1.93863 9.73005 1.97347 10.2151V10.2169Z" fill="white"/>
<path d="M10.3 7.37138C10.9079 7.37138 11.5176 7.36435 12.1256 7.37665C12.312 7.38017 12.3851 7.3169 12.4409 7.13938C12.7927 6.0198 13.1568 4.9055 13.5191 3.7912C13.6916 3.25865 14.0347 2.97041 14.4911 2.97041C14.9475 2.97041 15.2942 3.25865 15.4649 3.78944C15.8185 4.88617 16.1773 5.98114 16.5205 7.08138C16.5884 7.29932 16.679 7.38193 16.9177 7.38017C18.0743 7.36611 19.231 7.37314 20.3876 7.37314C20.905 7.37314 21.2691 7.60865 21.4102 8.03047C21.5582 8.46986 21.4154 8.88817 20.9869 9.20629C20.0636 9.88999 19.1421 10.5772 18.205 11.2398C17.9733 11.4033 17.9524 11.5439 18.036 11.7917C18.4105 12.913 18.7728 14.0396 19.123 15.1697C19.2989 15.7392 18.9854 16.277 18.421 16.4282C18.1005 16.5143 17.8235 16.4106 17.5674 16.2225C16.625 15.53 15.6774 14.8446 14.742 14.1433C14.5521 14.001 14.4319 14.008 14.2455 14.1468C13.3014 14.8551 12.3468 15.5476 11.3939 16.2419C11.0403 16.4985 10.6641 16.5389 10.2843 16.3069C9.94116 16.096 9.78787 15.7761 9.81574 15.3754C9.82445 15.2559 9.86625 15.1363 9.90283 15.0203C10.2512 13.9324 10.5979 12.8445 10.9585 11.7618C11.0334 11.5368 11.0142 11.4068 10.8034 11.2574C9.83316 10.5684 8.87857 9.85835 7.92398 9.14829C7.60346 8.91102 7.46933 8.58059 7.54075 8.17986C7.61217 7.77738 7.8543 7.52429 8.23405 7.40653C8.33856 7.3749 8.45353 7.37314 8.56502 7.37314C9.14334 7.36962 9.72167 7.37314 10.3 7.37314V7.37138ZM8.60508 8.35211L8.5894 8.41362C9.57361 9.13423 10.5596 9.85308 11.5403 10.579C12.0176 10.9322 12.1308 11.2943 11.9496 11.862C11.6082 12.9306 11.2633 13.9974 10.9201 15.066C10.8888 15.1645 10.8644 15.2664 10.8174 15.4387C11.859 14.6759 12.8345 13.9588 13.8118 13.247C14.3152 12.8796 14.6723 12.8779 15.1705 13.2417C15.754 13.6653 16.3359 14.0941 16.9177 14.5212C17.3148 14.8112 17.7137 15.103 18.1701 15.4351C18.1336 15.3051 18.1196 15.2488 18.1022 15.1926C17.7486 14.0853 17.3932 12.978 17.0396 11.8708C16.8532 11.2837 16.9682 10.9305 17.4629 10.5667C18.0116 10.1624 18.5621 9.76168 19.1125 9.3592C19.5428 9.04283 19.9731 8.72471 20.48 8.35211C20.2918 8.35211 20.1943 8.35211 20.0985 8.35211C18.9819 8.35211 17.867 8.35211 16.7504 8.35211C16.1408 8.35211 15.8377 8.13241 15.6478 7.55065C15.383 6.7369 15.1217 5.91962 14.8587 5.10586C14.7472 4.76314 14.634 4.42217 14.4964 4.00386C14.4336 4.17962 14.3971 4.27102 14.3675 4.36417C14.026 5.42223 13.6846 6.48029 13.3414 7.53659C13.1463 8.13768 12.8502 8.35035 12.2179 8.35035C11.7719 8.35035 11.326 8.35035 10.8783 8.35035C10.1206 8.35035 9.36283 8.35035 8.60508 8.35035V8.35211Z" fill="white"/>
<path d="M22.5146 4.55926C22.694 4.73326 22.8629 4.84399 22.9553 4.99865C23.0755 5.19902 22.9884 5.4152 22.8072 5.53647C22.4971 5.74562 22.1714 5.93544 21.8369 6.10241C21.6384 6.20259 21.3997 6.15338 21.3039 5.95477C21.2273 5.79483 21.182 5.47671 21.2673 5.40465C21.6349 5.09883 22.0547 4.8598 22.5146 4.5575V4.55926Z" fill="white"/>
<path d="M14.9789 0.99138C14.9789 1.16538 14.9893 1.34114 14.9754 1.51338C14.9562 1.78053 14.7489 1.96332 14.4894 1.96156C14.2281 1.9598 14.0225 1.77702 14.0121 1.50635C13.9999 1.15835 13.9999 0.81035 14.0121 0.46235C14.0208 0.189925 14.2229 0.00537985 14.4824 0.000107124C14.7559 -0.0051656 14.9615 0.184653 14.9771 0.471137C14.9876 0.645137 14.9789 0.819137 14.9771 0.993137L14.9789 0.99138Z" fill="white"/>
<path d="M7.30384 6.15514C7.22894 6.12877 7.14707 6.11471 7.07913 6.07605C6.79693 5.91611 6.51125 5.75968 6.23777 5.58393C5.98344 5.42047 5.92073 5.15859 6.05486 4.91956C6.18725 4.68405 6.45551 4.59441 6.71158 4.72799C7.00771 4.88265 7.29688 5.0549 7.58081 5.23065C7.8003 5.36774 7.87869 5.59974 7.77243 5.81593C7.69578 5.97411 7.50765 6.07605 7.36829 6.20435C7.34739 6.18677 7.32475 6.17096 7.30384 6.15338V6.15514Z" fill="white"/>
<path d="M10.2338 3.07235C10.1746 3.02489 10.0143 2.9458 9.92548 2.8175C9.74606 2.55914 9.59799 2.27793 9.45167 1.99847C9.30709 1.72429 9.38548 1.44835 9.63109 1.3095C9.868 1.17593 10.1258 1.23744 10.2878 1.4958C10.4655 1.78053 10.6379 2.07053 10.7843 2.37283C10.9532 2.72259 10.7163 3.08114 10.2355 3.07235H10.2338Z" fill="white"/>
<path d="M19.609 1.79635C19.595 1.83853 19.5794 1.91938 19.541 1.98968C19.3843 2.27441 19.2292 2.56265 19.055 2.83859C18.9 3.0829 18.6213 3.14793 18.3931 3.01786C18.1597 2.88429 18.0743 2.61714 18.2102 2.35526C18.3635 2.05647 18.5307 1.76296 18.7101 1.47999C18.8356 1.2849 19.0237 1.19174 19.2606 1.27259C19.4888 1.34993 19.602 1.51338 19.609 1.79635Z" fill="white"/>
</svg>
