<svg width="88" height="90" viewBox="0 0 88 90" fill="none" xmlns="http://www.w3.org/2000/svg">
<g filter="url(#filter0_d_1306_8529)">
<circle cx="44" cy="38" r="38" fill="url(#paint0_diamond_1306_8529)"/>
<g clip-path="url(#clip0_1306_8529)">
<path d="M57.5169 28.5537C58.3438 28.5343 59.1078 28.3945 59.8193 28.5291C60.9161 28.7375 61.5949 29.5117 61.8269 30.5939C62.0693 31.7266 61.7168 32.6885 60.7864 33.4005C60.3081 33.7668 59.7787 34.0685 59.1838 34.4581C60.5047 35.0834 61.3014 36.0297 61.1494 37.4615C60.9961 38.8946 60.0316 39.6816 58.5233 40.0402C60.0644 40.7432 60.8047 41.8021 60.4811 43.318C60.1679 44.7809 59.0724 45.4191 57.5156 45.4851C57.5156 45.7595 57.5156 46.0107 57.5156 46.2618C57.5156 48.0095 57.5248 49.7571 57.513 51.5035C57.496 53.8764 55.6732 55.7302 53.2751 55.646C52.1927 55.6085 51.5598 55.9217 50.9688 56.8176C49.7436 58.674 47.9156 59.8636 45.908 60.788C44.4076 61.4792 42.9125 62.1835 41.3924 62.8282C41.1749 62.9201 40.6821 62.7945 40.5786 62.6184C40.4672 62.4282 40.5642 61.9168 40.7424 61.799C41.3714 61.3834 42.0699 61.0663 42.7513 60.7297C44.3473 59.9413 45.984 59.2241 47.5382 58.3607C48.6049 57.7678 49.433 56.8577 50.1839 55.7224C49.872 55.7043 49.6506 55.681 49.4291 55.681C45.3682 55.6797 41.3059 55.6797 37.2449 55.681C34.4263 55.681 32.6677 53.9553 32.6664 51.1656C32.6625 43.1834 32.6742 35.2025 32.6454 27.2216C32.6441 26.6714 32.4803 26.0526 32.1894 25.5892C31.6954 24.8008 30.6156 24.8979 30.1517 25.7148C29.9971 25.9866 29.8778 26.3219 29.8739 26.6287C29.8438 29.7253 28.9134 32.6069 27.7982 35.4549C27.1299 37.1599 26.5022 38.8829 25.9309 40.6215C25.6138 41.5846 25.7671 42.5607 26.0554 43.5446C26.6477 45.5692 27.1522 47.6185 27.6921 49.6574C27.7026 49.6989 27.7235 49.7442 27.7183 49.783C27.5479 50.9533 28.2752 51.673 29.0025 52.4407C32.8629 56.5211 36.6972 60.6248 40.5393 64.7221C41.1093 65.3305 41.1002 65.5532 40.4961 66.1111C39.8094 66.7442 39.1162 67.3681 38.4335 68.0038C38.1019 68.3132 37.739 68.4232 37.4009 68.075C37.0497 67.7151 37.2174 67.3669 37.545 67.0678C38.136 66.528 38.7257 65.9869 39.3848 65.3823C35.2544 60.9808 31.1542 56.6092 26.9989 52.1805C26.3476 52.741 25.7409 53.2576 25.142 53.7806C24.3073 54.5081 23.4765 55.2395 22.647 55.9735C22.3207 56.2622 21.9564 56.4279 21.617 56.0577C21.2632 55.6719 21.4362 55.3198 21.7979 55.0052C23.1568 53.822 24.4763 52.5909 25.8746 51.4543C26.4629 50.9753 26.5782 50.4678 26.4131 49.8192C25.9886 48.1506 25.7003 46.4275 25.0831 44.8301C24.2221 42.6008 24.4121 40.4985 25.239 38.3496C26.1301 36.0349 27.088 33.7358 27.8035 31.368C28.2595 29.8599 28.4495 28.243 28.5347 26.6624C28.6447 24.595 30.5357 23.1062 32.4004 24.0331C32.4528 24.059 32.5249 24.0474 32.6664 24.0603C32.6664 23.6616 32.6625 23.2797 32.6664 22.8978C32.6834 21.2602 32.5969 19.6123 32.7476 17.9863C32.9376 15.9267 34.5442 14.5104 36.6225 14.3577C37.0982 14.324 37.5804 14.3214 38.06 14.3201C42.9072 14.3188 47.7557 14.3188 52.6029 14.3188C53.6368 14.3188 54.6589 14.3667 55.5552 14.97C56.7883 15.8011 57.492 16.9287 57.5156 18.429C57.5235 18.9663 57.5169 19.5048 57.5169 20.1314C57.758 20.0408 57.9336 19.9812 58.104 19.91C59.4852 19.3287 61.0498 19.8336 61.7915 21.1049C62.5161 22.3463 62.1911 23.9231 60.9725 24.7879C60.1233 25.3898 59.2427 25.9633 58.3268 26.4578C57.682 26.8061 57.3951 27.2333 57.5117 27.9466C57.551 28.1912 57.5182 28.4463 57.5182 28.5537H57.5169ZM34.024 19.5773V46.9751H56.2196C56.2196 46.6696 56.1934 46.4107 56.2249 46.1583C56.2865 45.6663 56.1096 45.4191 55.6313 45.1912C55.1661 44.9699 54.7507 44.5621 54.4348 44.1465C54.1924 43.8281 53.9762 43.6986 53.5883 43.7142C52.9567 43.7413 52.3212 43.7362 51.6896 43.7142C51.2846 43.6999 50.961 43.5394 50.9597 43.063C50.9583 42.5788 51.2768 42.4351 51.6922 42.4287C52.3251 42.4183 52.9593 42.4403 53.591 42.4157C53.7547 42.4093 53.9919 42.3173 54.0588 42.1931C54.3117 41.727 54.5069 41.2325 54.7441 40.703C53.5071 40.1865 52.7222 39.2739 52.8217 37.8447C52.9226 36.3857 53.8766 35.6025 55.3207 35.1921C54.503 34.6277 53.9985 33.9649 53.8845 33.0846C53.701 31.6852 54.3667 30.7117 55.5736 30.08C56.0899 29.8094 56.2406 29.4677 56.234 28.9006C56.2039 26.0319 56.2209 23.1619 56.2209 20.2932C56.2209 20.0641 56.2209 19.8349 56.2209 19.576H34.024V19.5773ZM34.0069 48.3473C34.0069 49.506 33.9598 50.6232 34.0187 51.7352C34.0973 53.2226 35.3003 54.3812 36.7968 54.3864C42.3385 54.4071 47.8815 54.4071 53.4232 54.3864C54.7847 54.3812 56.0152 53.3715 56.1554 52.0485C56.2838 50.8406 56.1829 49.6095 56.1829 48.3486H34.0069V48.3473ZM56.2183 18.2362C56.0899 17.462 55.82 16.8769 55.3076 16.3979C54.6419 15.7778 53.8373 15.6212 52.9567 15.6225C47.8081 15.6315 42.6609 15.6263 37.5123 15.6276C37.1847 15.6276 36.8571 15.6276 36.5321 15.6561C35.1797 15.7804 33.9886 17.0348 34.1052 18.2362H56.2183ZM60.7051 31.3072C60.6016 30.0385 59.3987 29.289 58.3359 29.8741C57.4802 30.3454 56.656 30.8813 55.8527 31.4367C55.0901 31.9622 54.942 32.8128 55.4177 33.5338C55.8527 34.194 56.7267 34.396 57.4986 33.9494C58.3451 33.46 59.189 32.9526 59.97 32.37C60.2989 32.1254 60.4666 31.6671 60.7065 31.3072H60.7051ZM58.3307 35.5896C57.1264 36.009 55.8986 36.3741 54.7271 36.8686C54.1282 37.121 53.9723 37.9249 54.2199 38.5709C54.465 39.2117 55.0874 39.657 55.7584 39.4926C56.8735 39.2182 57.9756 38.8725 59.054 38.4764C59.6909 38.2421 59.9884 37.4951 59.8377 36.8634C59.6712 36.1682 59.0986 35.7177 58.332 35.5896H58.3307ZM57.5274 25.4546C58.5521 24.806 59.4537 24.283 60.2989 23.6836C60.8218 23.3121 60.9253 22.7205 60.7969 22.1056C60.654 21.422 60.0329 20.9689 59.2558 20.9676C58.6753 20.9676 57.5523 21.5657 57.5405 21.9463C57.5064 23.0596 57.5287 24.1729 57.5287 25.4546H57.5274ZM57.3033 44.1634C57.4671 44.1634 57.686 44.1789 57.9022 44.1608C58.5456 44.1051 59.0894 43.6455 59.2152 43.0721C59.358 42.417 59.113 41.7581 58.4866 41.4953C57.6584 41.1471 56.7713 41.1471 55.9706 41.5807C55.305 41.9419 55.1399 42.7096 55.4753 43.3853C55.8448 44.1323 56.5105 44.2333 57.3033 44.1634Z" fill="white"/>
<path d="M27.6463 57.1492C27.6384 57.7175 27.0605 58.2547 26.4866 58.2314C25.9309 58.2081 25.4068 57.6269 25.4146 57.043C25.4225 56.4708 25.9951 55.9401 26.5822 55.9621C27.1444 55.9828 27.6554 56.5537 27.6476 57.1492H27.6463Z" fill="white"/>
<path d="M42.7972 27.7651V31.9543C42.0149 31.9543 41.2404 31.9634 40.466 31.9517C39.8606 31.9426 38.997 32.1368 38.7179 31.8261C38.3929 31.465 38.5646 30.6546 38.5502 30.0397C38.5331 29.2927 38.5462 28.5445 38.5462 27.7664H42.7985L42.7972 27.7651ZM41.6218 30.7167C41.6218 30.1924 41.6414 29.7057 41.6074 29.2215C41.5995 29.1089 41.4121 28.9251 41.2955 28.916C40.808 28.8823 40.3166 28.9017 39.8226 28.9017V30.7154H41.6218V30.7167Z" fill="white"/>
<path d="M52.3734 27.769V31.9478C51.0538 31.9478 49.7526 31.9556 48.4514 31.9323C48.3518 31.931 48.1736 31.7161 48.1723 31.5983C48.1513 30.3335 48.1592 29.0675 48.1592 27.769H52.3734ZM49.4014 30.7543C49.7906 30.7543 50.1562 30.7193 50.5126 30.762C51.1089 30.8345 51.2478 30.5847 51.2268 30.0332C51.177 28.7451 51.3788 28.9121 50.0789 28.8979C49.8666 28.8953 49.6543 28.9173 49.4014 28.9303V30.753V30.7543Z" fill="white"/>
<path d="M38.5947 36.1646H42.7618V40.2463H38.5947V36.1646ZM41.5445 39.1019C41.8524 37.3374 41.7882 37.2597 40.1345 37.2895C40.0322 37.2908 39.93 37.3128 39.8042 37.3284V39.1019H41.5445Z" fill="white"/>
<path d="M42.2176 34.5512V33.3744H44.043V29.9283H45.6548C45.6548 29.2992 45.681 28.7244 45.647 28.1535C45.6181 27.6771 45.8684 27.6279 46.2484 27.6422C46.5931 27.6538 46.8945 27.6215 46.8774 28.1276C46.846 29.0727 46.8682 30.019 46.8682 31.0417H45.2578C45.2578 32.0113 45.2224 32.9097 45.2696 33.8029C45.301 34.3894 45.1333 34.6094 44.5121 34.5641C43.7587 34.5098 42.9986 34.5512 42.2163 34.5512H42.2176Z" fill="white"/>
<path d="M36.5177 42.4272C37.2331 42.4272 37.8621 42.4272 38.4898 42.4272C38.9209 42.4272 39.3075 42.5333 39.3272 43.0356C39.3494 43.5845 38.9393 43.7049 38.4859 43.7101C37.6787 43.7204 36.8715 43.7217 36.0643 43.7178C35.4798 43.7152 35.1902 43.4408 35.2073 42.8362C35.2308 42.0181 35.2217 41.1986 35.2125 40.3792C35.2073 39.9157 35.3855 39.6128 35.8887 39.6322C36.3486 39.6504 36.5163 39.9585 36.5163 40.3779C36.5163 41.0226 36.5163 41.6673 36.5163 42.4259L36.5177 42.4272Z" fill="white"/>
<path d="M36.5202 25.6541C36.5202 26.3324 36.5254 26.9279 36.5189 27.5221C36.5136 27.9532 36.4534 28.3739 35.8846 28.3882C35.274 28.4037 35.2072 27.983 35.2111 27.5118C35.2176 26.7389 35.2163 25.9648 35.2111 25.1919C35.2072 24.6262 35.4915 24.3699 36.055 24.3751C36.8819 24.3815 37.7074 24.3751 38.5343 24.3777C38.9877 24.379 39.3074 24.555 39.2904 25.0547C39.2747 25.5195 38.968 25.6644 38.5382 25.6593C37.8922 25.6502 37.2462 25.6567 36.5202 25.6567V25.6541Z" fill="white"/>
<path d="M53.4613 25.6555C52.7917 25.6555 52.2295 25.6516 51.6674 25.6555C51.2362 25.6593 50.9361 25.5001 50.927 25.0367C50.9178 24.5797 51.2061 24.3816 51.6359 24.3764C52.4182 24.3674 53.2018 24.3687 53.9855 24.3764C54.4782 24.3816 54.7573 24.6211 54.7573 25.1286C54.7573 25.9234 54.7494 26.7183 54.7612 27.5131C54.7678 27.9507 54.5882 28.2342 54.1322 28.242C53.6382 28.251 53.4547 27.9442 53.46 27.4846C53.4678 26.9086 53.4613 26.3325 53.4613 25.6542V25.6555Z" fill="white"/>
<path d="M46.6407 37.7216V36.5293H47.7781V38.8906H45.4797V40.5748H44.3462V37.7216H46.6407Z" fill="white"/>
<path d="M46.5513 34.3375V33.2139H49.7159C49.7775 33.632 49.691 34.2327 49.9426 34.4476C50.2178 34.6832 50.8048 34.5641 51.308 34.6029V35.667H48.6427C48.6204 35.2489 48.5994 34.8295 48.5732 34.3375H46.5513Z" fill="white"/>
<path d="M51.1116 39.173V37.7231H52.3094C52.3094 38.4908 52.3251 39.274 52.291 40.0546C52.2871 40.1582 52.0329 40.3317 51.8887 40.3368C51.1103 40.3653 50.3293 40.3498 49.4985 40.3498V39.1717H51.1103L51.1116 39.173Z" fill="white"/>
<path d="M38.4375 34.4622V33.3696H39.7676V34.4622H38.4375Z" fill="white"/>
<path d="M46.9194 51.0854C46.9246 51.8647 46.276 52.5314 45.4924 52.5508C44.6891 52.5715 44.0038 51.8945 44.0024 51.0802C44.0024 50.2853 44.6367 49.6355 45.4308 49.6199C46.2485 49.6031 46.9129 50.2582 46.9194 51.0854Z" fill="white"/>
</g>
</g>
<defs>
<filter id="filter0_d_1306_8529" x="0" y="0" width="88" height="90" filterUnits="userSpaceOnUse" color-interpolation-filters="sRGB">
<feFlood flood-opacity="0" result="BackgroundImageFix"/>
<feColorMatrix in="SourceAlpha" type="matrix" values="0 0 0 0 0 0 0 0 0 0 0 0 0 0 0 0 0 0 127 0" result="hardAlpha"/>
<feOffset dy="8"/>
<feGaussianBlur stdDeviation="3"/>
<feComposite in2="hardAlpha" operator="out"/>
<feColorMatrix type="matrix" values="0 0 0 0 0 0 0 0 0 0 0 0 0 0 0 0 0 0 0.1 0"/>
<feBlend mode="normal" in2="BackgroundImageFix" result="effect1_dropShadow_1306_8529"/>
<feBlend mode="normal" in="SourceGraphic" in2="effect1_dropShadow_1306_8529" result="shape"/>
</filter>
<radialGradient id="paint0_diamond_1306_8529" cx="0" cy="0" r="1" gradientUnits="userSpaceOnUse" gradientTransform="translate(37.5748 -2.29318e-05) rotate(90) scale(70.4928 956.913)">
<stop stop-color="#5F45FD"/>
<stop offset="1" stop-color="#3C72ED"/>
</radialGradient>
<clipPath id="clip0_1306_8529">
<rect width="40.7536" height="53.971" fill="white" transform="translate(21.4204 14.3188)"/>
</clipPath>
</defs>
</svg>
